<svg xmlns="http://www.w3.org/2000/svg" viewBox="0 0 24 24" fill="#3DDC84"><path d="M6 18c0 .55.45 1 1 1h1v3.5c0 .83.67 1.5 1.5 1.5s1.5-.67 1.5-1.5V19h2v3.5c0 .83.67 1.5 1.5 1.5s1.5-.67 1.5-1.5V19h1c.55 0 1-.45 1-1V8H6v10zM3 11v7c0 .55.45 1 1 1s1-.45 1-1v-7c0-.55-.45-1-1-1s-1 .45-1 1zm18 0v7c0 .55.45 1 1 1s1-.45 1-1v-7c0-.55-.45-1-1-1s-1 .45-1 1zM15.5 4.5l1.42-1.42c.19-.19.19-.5 0-.71-.19-.19-.5-.19-.71 0l-1.5 1.5c-.96-.72-2.17-1.16-3.5-1.21-.04 0-.08 0-.12 0s-.08 0-.12 0C9.14 2.73 7.92 3.17 6.96 3.89L5.46 2.39c-.19-.19-.5-.19-.71 0-.19.19-.19.5 0 .71L6.17 4.5c-1.14 1.05-1.85 2.57-1.85 4.26h13.36c0-1.69-.71-3.21-1.85-4.26zM10 6.5c-.55 0-1-.45-1-1s.45-1 1-1 1 .45 1 1-.45 1-1 1zm4 0c-.55 0-1-.45-1-1s.45-1 1-1 1 .45 1 1-.45 1-1 1z"/></svg>
